<svg width="158" height="158" viewBox="0 0 158 158" fill="none" xmlns="http://www.w3.org/2000/svg">
<g filter="url(#filter0_i_5918_8025)">
<path fill-rule="evenodd" clip-rule="evenodd" d="M79 0C122.601 0 158 35.3994 158 79C158 122.601 122.601 158 79 158C35.3994 158 0 122.601 0 79C0 35.3994 35.3994 0 79 0ZM79 19.7493C111.7 19.7493 138.251 46.2996 138.251 79C138.251 111.7 111.7 138.251 79 138.251C46.2996 138.251 19.7493 111.7 19.7493 79C19.7493 46.2996 46.2996 19.7493 79 19.7493Z" fill="url(#paint0_linear_5918_8025)"/>
</g>
<defs>
<filter id="filter0_i_5918_8025" x="0" y="0" width="158" height="158" filterUnits="userSpaceOnUse" color-interpolation-filters="sRGB">
<feFlood flood-opacity="0" result="BackgroundImageFix"/>
<feBlend mode="normal" in="SourceGraphic" in2="BackgroundImageFix" result="shape"/>
<feColorMatrix in="SourceAlpha" type="matrix" values="0 0 0 0 0 0 0 0 0 0 0 0 0 0 0 0 0 0 127 0" result="hardAlpha"/>
<feOffset dy="4"/>
<feComposite in2="hardAlpha" operator="arithmetic" k2="-1" k3="1"/>
<feColorMatrix type="matrix" values="0 0 0 0 0.0235294 0 0 0 0 0.101961 0 0 0 0 0.792157 0 0 0 1 0"/>
<feBlend mode="normal" in2="shape" result="effect1_innerShadow_5918_8025"/>
</filter>
<linearGradient id="paint0_linear_5918_8025" x1="136.512" y1="-3.97405e-06" x2="54.984" y2="158" gradientUnits="userSpaceOnUse">
<stop stop-color="white"/>
<stop offset="1" stop-color="#1C1475"/>
</linearGradient>
</defs>
</svg>
