<svg width="48" height="48" viewBox="0 0 48 48" fill="none" xmlns="http://www.w3.org/2000/svg">
<g filter="url(#filter0_d_5492_7921)">
<rect x="6" y="6" width="36" height="36" rx="18" fill="#FF0B6F"/>
<g clip-path="url(#clip0_5492_7921)">
<path d="M28.5159 15.4757C28.0159 15.241 27.5432 15.02 27.1128 14.8041C26.01 14.2516 25.01 13.9832 24.0569 13.9832C22.1372 13.9832 20.8088 15.0907 19.9757 15.9238L15.9357 19.9682C13.7738 22.1322 13.4285 24.3353 14.8172 27.1128C15.0325 27.5441 15.2541 28.0178 15.4885 28.5197C16.7522 31.2225 18.0585 34.0175 20.1966 34.0175C20.2566 34.0175 20.316 34.0157 20.3766 34.011C22.5832 33.8382 23.2091 30.9975 23.7616 28.4916C23.8494 28.0947 23.9325 27.7141 24.0178 27.3728C24.1663 26.7828 24.4585 26.4163 25.2591 25.6138L25.3691 25.5032L25.4369 25.4353L25.615 25.2578C26.4175 24.4553 26.7841 24.1635 27.3747 24.0144C27.7128 23.9294 28.0925 23.8457 28.4884 23.7588C30.9928 23.206 33.8322 22.5797 34.0041 20.3697C34.1775 18.1269 31.2997 16.7791 28.5159 15.4757ZM32.72 20.2566C32.5985 21.8147 29.1104 22.2746 27.0344 22.7952C26.1163 23.0271 25.5576 23.5131 24.7144 24.3565C24.6557 24.4152 24.5966 24.474 24.5369 24.5336C24.4779 24.5927 24.4191 24.6527 24.36 24.7112C23.5169 25.5552 23.0319 26.1137 22.801 27.0331C22.28 29.1109 21.8207 32.6027 20.2645 32.7252C20.2364 32.7273 20.2082 32.7282 20.18 32.7281C18.5288 32.7281 17.1394 28.9734 15.9135 26.5237C14.6685 24.0334 15.2019 22.4177 16.7994 20.8187C17.106 20.5115 17.4872 20.1303 17.9544 19.6628C18.4316 19.185 18.9991 18.6168 19.6716 17.944C20.1385 17.4765 20.5194 17.0959 20.8263 16.7881C21.8185 15.795 22.8172 15.2131 24.0278 15.2131C24.7663 15.2131 25.5832 15.429 26.5253 15.9015C29.0147 17.1497 32.8513 18.5672 32.72 20.2566ZM23.3513 20.8609H24.6013V19.6109H23.3513V20.8609ZM23.3513 18.9859H24.6013V17.7359H23.3513V18.9859ZM25.2263 18.9859H26.4763V17.7359H25.2263V18.9859ZM25.2263 20.8609H26.4763V19.6109H25.2263V20.8609ZM20.4432 24.614L20.9185 24.1387C21.1529 23.9043 21.1529 23.524 20.9185 23.29C20.6841 23.0556 20.3045 23.0556 20.0701 23.29L19.5945 23.7656L19.1188 23.29C18.8845 23.0556 18.5048 23.0556 18.2704 23.29C18.036 23.5243 18.036 23.9043 18.2704 24.1387L18.746 24.6143L18.2704 25.0899C18.036 25.324 18.036 25.704 18.2704 25.9384C18.5048 26.1727 18.8848 26.1727 19.1188 25.9384L19.5945 25.4631L20.0838 25.9524C20.3182 26.1868 20.6979 26.1868 20.9323 25.9524C21.1666 25.7181 21.1666 25.3378 20.9323 25.1034L20.4432 24.614Z" fill="white"/>
</g>
</g>
<defs>
<filter id="filter0_d_5492_7921" x="0" y="0" width="48" height="48" filterUnits="userSpaceOnUse" color-interpolation-filters="sRGB">
<feFlood flood-opacity="0" result="BackgroundImageFix"/>
<feColorMatrix in="SourceAlpha" type="matrix" values="0 0 0 0 0 0 0 0 0 0 0 0 0 0 0 0 0 0 127 0" result="hardAlpha"/>
<feMorphology radius="2" operator="dilate" in="SourceAlpha" result="effect1_dropShadow_5492_7921"/>
<feOffset/>
<feGaussianBlur stdDeviation="2"/>
<feComposite in2="hardAlpha" operator="out"/>
<feColorMatrix type="matrix" values="0 0 0 0 1 0 0 0 0 0.0509804 0 0 0 0 0.431373 0 0 0 0.19 0"/>
<feBlend mode="normal" in2="BackgroundImageFix" result="effect1_dropShadow_5492_7921"/>
<feBlend mode="normal" in="SourceGraphic" in2="effect1_dropShadow_5492_7921" result="shape"/>
</filter>
<clipPath id="clip0_5492_7921">
<rect width="20" height="20" fill="white" transform="translate(14 14)"/>
</clipPath>
</defs>
</svg>
