<svg width="48" height="48" viewBox="0 0 48 48" fill="none" xmlns="http://www.w3.org/2000/svg">
<g filter="url(#filter0_d_6479_10521)">
<rect x="6" y="6" width="36" height="36" rx="18" fill="#FF0B6F"/>
<g clip-path="url(#clip0_6479_10521)">
<mask id="mask0_6479_10521" style="mask-type:luminance" maskUnits="userSpaceOnUse" x="14" y="14" width="20" height="20">
<path d="M34 14H14V34H34V14Z" fill="white"/>
</mask>
<g mask="url(#mask0_6479_10521)">
<path d="M32.5081 15.4548C31.0742 14 28.8452 14 24.3871 14H23.5726C19.1161 14 16.8871 14 15.4339 15.4548C14 16.8903 14 19.121 14 23.5823V24.3968C14 28.8581 14 31.0887 15.4532 32.5435C16.9065 33.9984 19.1355 33.9984 23.5935 33.9984H24.4081C28.8661 33.9984 31.0935 33.9984 32.5468 32.5435C34 31.0887 34 28.8581 34 24.3968V23.5823C33.9613 19.121 33.9613 16.8903 32.5081 15.4548ZM15.8597 15.8629C17.1403 14.5823 19.2903 14.5823 23.5742 14.5823H24.3887C28.671 14.5823 30.8419 14.5823 32.1016 15.8629C32.9161 16.6774 33.2065 17.8613 33.3226 19.7419H14.6403C14.7371 17.8597 15.0468 16.6774 15.8613 15.8629H15.8597ZM30.5887 24.2032C30.5887 25.7742 29.3097 27.0548 27.7403 27.0548C26.171 27.0548 24.8919 25.7742 24.8919 24.2032C24.8919 22.6323 26.171 21.3516 27.7403 21.3516C29.3097 21.3516 30.5887 22.6323 30.5887 24.2032ZM23.1274 25.5806L21.7323 26.9774L20.3565 25.6L18.9806 26.9774L17.5855 25.5806L18.9613 24.2032L17.5855 22.8258L18.9806 21.429L20.3565 22.8065L21.7323 21.429L23.1274 22.8258L21.7516 24.2032L23.1274 25.5806ZM32.1 32.1177C30.821 33.3984 28.6694 33.3984 24.3871 33.3984H23.5726C19.2903 33.3984 17.1194 33.3984 15.8597 32.1177C14.9484 31.2065 14.6968 29.8484 14.6194 27.5597C17.1194 28.7048 20.3952 29.4032 23.979 29.4032C27.5629 29.4032 30.8403 28.7048 33.3403 27.5597C33.2823 29.8484 33.0113 31.2065 32.1 32.1177Z" fill="white"/>
<path d="M27.7404 25.0757C28.2226 25.0757 28.613 24.6854 28.613 24.2031C28.613 23.7209 28.2226 23.3306 27.7404 23.3306C27.2581 23.3306 26.8678 23.7209 26.8678 24.2031C26.8678 24.6854 27.2581 25.0757 27.7404 25.0757Z" fill="white"/>
</g>
</g>
</g>
<defs>
<filter id="filter0_d_6479_10521" x="0" y="0" width="48" height="48" filterUnits="userSpaceOnUse" color-interpolation-filters="sRGB">
<feFlood flood-opacity="0" result="BackgroundImageFix"/>
<feColorMatrix in="SourceAlpha" type="matrix" values="0 0 0 0 0 0 0 0 0 0 0 0 0 0 0 0 0 0 127 0" result="hardAlpha"/>
<feMorphology radius="2" operator="dilate" in="SourceAlpha" result="effect1_dropShadow_6479_10521"/>
<feOffset/>
<feGaussianBlur stdDeviation="2"/>
<feComposite in2="hardAlpha" operator="out"/>
<feColorMatrix type="matrix" values="0 0 0 0 1 0 0 0 0 0.0509804 0 0 0 0 0.431373 0 0 0 0.19 0"/>
<feBlend mode="normal" in2="BackgroundImageFix" result="effect1_dropShadow_6479_10521"/>
<feBlend mode="normal" in="SourceGraphic" in2="effect1_dropShadow_6479_10521" result="shape"/>
</filter>
<clipPath id="clip0_6479_10521">
<rect width="20" height="20" fill="white" transform="translate(14 14)"/>
</clipPath>
</defs>
</svg>
