<svg width="48" height="48" viewBox="0 0 48 48" fill="none" xmlns="http://www.w3.org/2000/svg">
<g filter="url(#filter0_d_5492_7927)">
<rect x="6" y="6" width="36" height="36" rx="18" fill="#FF0B6F"/>
<path fill-rule="evenodd" clip-rule="evenodd" d="M26.937 31.7472C26.937 31.7472 29.1001 29.7614 29.5716 27.0912C30.8398 27.0912 31.6231 24.2524 30.3547 23.2536C30.3592 23.1642 30.3747 23.0305 30.3944 22.8605C30.6068 21.0303 31.3064 15 24.0001 15C16.6946 15 17.3933 21.0288 17.6055 22.8599C17.6252 23.0301 17.6408 23.1641 17.6453 23.2536C16.3769 24.2524 17.1602 27.0912 18.4284 27.0912C18.8998 29.7614 21.063 31.7472 21.063 31.7472C21.5093 32.1648 22.7215 33 24.0001 33C25.2786 33 26.4908 32.1648 26.937 31.7472ZM19.376 25.2725C20.8569 27.5287 23.0877 25.959 23.0877 25.959C23.3425 25.7804 23.643 25.6489 23.9919 25.6518C24.3409 25.6547 24.6195 25.7819 24.8705 25.958C24.8705 25.958 27.1016 27.5281 28.5827 25.2719C30.0634 23.0165 29.4666 20.5603 29.4666 20.5603C29.3621 19.9588 29.0176 19.5575 28.3673 19.6079C27.719 19.6581 26.3117 21.2276 26.3117 21.2276C26.1954 21.3569 25.9519 21.4626 25.771 21.4626L22.1887 21.4632C22.0076 21.4632 21.7643 21.3575 21.6482 21.2282C21.6482 21.2282 20.2407 19.6587 19.5913 19.6085C18.9419 19.5581 18.5965 19.9598 18.4926 20.5608C18.4926 20.5608 17.8951 23.0167 19.376 25.2725ZM21.0133 24.7454C21.0133 24.5313 21.2005 24.3577 21.4314 24.3577C21.6624 24.3577 21.8496 24.5313 21.8496 24.7454C21.8496 24.9596 21.6624 25.1332 21.4314 25.1332C21.2005 25.1332 21.0133 24.9596 21.0133 24.7454ZM26.3952 24.5732C26.3952 24.7334 26.5352 24.8632 26.7079 24.8632C26.8806 24.8632 27.0207 24.7334 27.0207 24.5732V23.9423H27.7009C27.8737 23.9423 28.0137 23.8124 28.0137 23.6522C28.0137 23.4921 27.8737 23.3622 27.7009 23.3622H27.0207V22.7314C27.0207 22.5712 26.8806 22.4413 26.7079 22.4413C26.5352 22.4413 26.3952 22.5712 26.3952 22.7314V23.3622H25.7147C25.542 23.3622 25.402 23.4921 25.402 23.6522C25.402 23.8124 25.542 23.9423 25.7147 23.9423H26.3952V24.5732ZM21.4315 22.6128C21.2006 22.6128 21.0134 22.7864 21.0134 23.0006C21.0134 23.2147 21.2006 23.3883 21.4315 23.3883C21.6625 23.3883 21.8497 23.2147 21.8497 23.0006C21.8497 22.7864 21.6625 22.6128 21.4315 22.6128ZM20.4907 23.4852C20.7216 23.4852 20.9088 23.6588 20.9088 23.8729C20.9088 24.0871 20.7216 24.2607 20.4907 24.2607C20.2597 24.2607 20.0725 24.0871 20.0725 23.8729C20.0725 23.6588 20.2597 23.4852 20.4907 23.4852ZM22.7905 23.873C22.7905 23.6588 22.6033 23.4852 22.3724 23.4852C22.1414 23.4852 21.9542 23.6588 21.9542 23.873C21.9542 24.0871 22.1414 24.2607 22.3724 24.2607C22.6033 24.2607 22.7905 24.0871 22.7905 23.873Z" fill="white"/>
</g>
<defs>
<filter id="filter0_d_5492_7927" x="0" y="0" width="48" height="48" filterUnits="userSpaceOnUse" color-interpolation-filters="sRGB">
<feFlood flood-opacity="0" result="BackgroundImageFix"/>
<feColorMatrix in="SourceAlpha" type="matrix" values="0 0 0 0 0 0 0 0 0 0 0 0 0 0 0 0 0 0 127 0" result="hardAlpha"/>
<feMorphology radius="2" operator="dilate" in="SourceAlpha" result="effect1_dropShadow_5492_7927"/>
<feOffset/>
<feGaussianBlur stdDeviation="2"/>
<feComposite in2="hardAlpha" operator="out"/>
<feColorMatrix type="matrix" values="0 0 0 0 1 0 0 0 0 0.0509804 0 0 0 0 0.431373 0 0 0 0.19 0"/>
<feBlend mode="normal" in2="BackgroundImageFix" result="effect1_dropShadow_5492_7927"/>
<feBlend mode="normal" in="SourceGraphic" in2="effect1_dropShadow_5492_7927" result="shape"/>
</filter>
</defs>
</svg>
