<svg width="48" height="48" viewBox="0 0 48 48" fill="none" xmlns="http://www.w3.org/2000/svg">
<g filter="url(#filter0_d_5492_7924)">
<rect x="6" y="6" width="36" height="36" rx="18" fill="#FF0B6F"/>
<path d="M30.25 27.3334C28.6667 27.3334 27.3333 28.6667 27.3333 30.25C27.3333 31.8334 28.6667 33.1667 30.25 33.1667C31.8333 33.1667 33.1667 31.8334 33.1667 30.25C33.1667 28.6667 31.8333 27.3334 30.25 27.3334ZM25.6667 30.25C25.6667 30.1084 25.6667 29.975 25.6917 29.8334H18.1667V21.5H29.8333V25.6917C29.975 25.6667 30.1083 25.6667 30.25 25.6667C30.6667 25.6667 31.0833 25.7334 31.5 25.8417V18.1667C31.5 17.7247 31.3244 17.3008 31.0118 16.9882C30.6993 16.6756 30.2754 16.5 29.8333 16.5H29V14.8334H27.3333V16.5H20.6667V14.8334H19V16.5H18.1667C17.7246 16.5 17.3007 16.6756 16.9882 16.9882C16.6756 17.3008 16.5 17.7247 16.5 18.1667V29.8334C16.5 30.2754 16.6756 30.6993 16.9882 31.0119C17.3007 31.3244 17.7246 31.5 18.1667 31.5H25.8417C25.7333 31.0834 25.6667 30.6667 25.6667 30.25ZM18.1667 18.1667H29.8333V19.8334H18.1667V18.1667Z" fill="#FCFCFC"/>
</g>
<defs>
<filter id="filter0_d_5492_7924" x="0" y="0" width="48" height="48" filterUnits="userSpaceOnUse" color-interpolation-filters="sRGB">
<feFlood flood-opacity="0" result="BackgroundImageFix"/>
<feColorMatrix in="SourceAlpha" type="matrix" values="0 0 0 0 0 0 0 0 0 0 0 0 0 0 0 0 0 0 127 0" result="hardAlpha"/>
<feMorphology radius="2" operator="dilate" in="SourceAlpha" result="effect1_dropShadow_5492_7924"/>
<feOffset/>
<feGaussianBlur stdDeviation="2"/>
<feComposite in2="hardAlpha" operator="out"/>
<feColorMatrix type="matrix" values="0 0 0 0 1 0 0 0 0 0.0509804 0 0 0 0 0.431373 0 0 0 0.19 0"/>
<feBlend mode="normal" in2="BackgroundImageFix" result="effect1_dropShadow_5492_7924"/>
<feBlend mode="normal" in="SourceGraphic" in2="effect1_dropShadow_5492_7924" result="shape"/>
</filter>
</defs>
</svg>
